<svg data-v-423bf9ae="" xmlns="http://www.w3.org/2000/svg" viewBox="0 0 483.314902655219 193" class="fontAboveSlogan"><!----><!----><!----><g data-v-423bf9ae="" id="92062864-1b79-4e2b-bc47-3c6b8ec034b3" fill="black" transform="matrix(9.471191734601849,0,0,9.471191734601849,-0.16572285188249225,-20.38248575671234)"><path d="M0.06 12.29L3.79 2.69L6.05 2.69L9.79 12.29L7.85 12.29L7.07 10.21L2.67 10.21L1.90 12.29L0.06 12.29ZM3.23 8.69L6.50 8.69L5.52 6.06L5.52 6.06Q5.29 5.50 5.04 4.63L5.04 4.63L5.04 4.63Q5.00 4.51 4.96 4.40L4.96 4.40L4.96 4.40Q4.93 4.30 4.90 4.23L4.90 4.23L4.83 4.23L4.69 4.66L4.21 6.06L3.23 8.69ZM10.82 12.29L10.82 4.93L12.21 4.93L12.35 5.91L12.45 5.91L12.45 5.91Q12.85 5.36 13.45 5.06L13.45 5.06L13.45 5.06Q14.04 4.76 14.81 4.76L14.81 4.76L14.81 4.76Q15.93 4.76 16.56 5.37L16.56 5.37L16.56 5.37Q17.19 5.98 17.19 7.32L17.19 7.32L17.19 12.29L15.51 12.29L15.51 7.62L15.51 7.62Q15.51 6.86 15.17 6.54L15.17 6.54L15.17 6.54Q14.83 6.22 14.15 6.22L14.15 6.22L14.15 6.22Q13.45 6.22 12.98 6.72L12.98 6.72L12.98 6.72Q12.50 7.22 12.50 8.01L12.50 8.01L12.50 12.29L10.82 12.29ZM20.33 14.84L20.33 14.84Q19.54 14.84 18.99 14.38L18.99 14.38L18.99 14.38Q18.44 13.93 18.44 13.12L18.44 13.12L18.44 13.12Q18.44 12.11 19.59 11.59L19.59 11.59L19.59 11.59Q19.25 11.41 19.05 11.13L19.05 11.13L19.05 11.13Q18.86 10.85 18.86 10.47L18.86 10.47L18.86 10.47Q18.86 9.98 19.23 9.66L19.23 9.66L19.23 9.66Q19.60 9.34 20.13 9.21L20.13 9.21L20.13 9.21Q19.63 8.89 19.36 8.39L19.36 8.39L19.36 8.39Q19.08 7.88 19.08 7.25L19.08 7.25L19.08 7.25Q19.08 6.09 19.92 5.42L19.92 5.42L19.92 5.42Q20.75 4.76 22.25 4.76L22.25 4.76L22.25 4.76Q23.09 4.76 23.70 4.98L23.70 4.98L23.70 4.98Q24.15 4.72 24.36 4.38L24.36 4.38L24.36 4.38Q24.57 4.03 24.60 3.71L24.60 3.71L26.22 3.71L26.22 3.71Q26.22 4.44 25.82 4.91L25.82 4.91L25.82 4.91Q25.41 5.39 24.70 5.54L24.70 5.54L24.70 5.54Q25.42 6.23 25.42 7.25L25.42 7.25L25.42 7.25Q25.42 8.41 24.61 9.09L24.61 9.09L24.61 9.09Q23.80 9.76 22.33 9.76L22.33 9.76L21.18 9.76L21.18 9.76Q20.89 9.76 20.72 9.88L20.72 9.88L20.72 9.88Q20.55 10.01 20.55 10.23L20.55 10.23L20.55 10.23Q20.55 10.44 20.71 10.58L20.71 10.58L20.71 10.58Q20.86 10.71 21.13 10.71L21.13 10.71L24.35 10.71L24.35 10.71Q25.17 10.71 25.70 11.25L25.70 11.25L25.70 11.25Q26.24 11.79 26.24 12.61L26.24 12.61L26.24 12.61Q26.24 13.23 25.91 13.74L25.91 13.74L25.91 13.74Q25.59 14.25 25.00 14.55L25.00 14.55L25.00 14.55Q24.40 14.84 23.63 14.84L23.63 14.84L20.33 14.84ZM22.26 8.57L22.26 8.57Q23.00 8.57 23.38 8.22L23.38 8.22L23.38 8.22Q23.76 7.88 23.76 7.25L23.76 7.25L23.76 7.25Q23.76 6.62 23.38 6.28L23.38 6.28L23.38 6.28Q23.00 5.94 22.26 5.94L22.26 5.94L22.26 5.94Q21.52 5.94 21.14 6.28L21.14 6.28L21.14 6.28Q20.76 6.62 20.76 7.25L20.76 7.25L20.76 7.25Q20.76 7.90 21.14 8.23L21.14 8.23L21.14 8.23Q21.52 8.57 22.26 8.57L22.26 8.57ZM20.92 13.62L23.63 13.62L23.63 13.62Q24.02 13.62 24.29 13.42L24.29 13.42L24.29 13.42Q24.56 13.22 24.56 12.88L24.56 12.88L24.56 12.88Q24.56 12.53 24.33 12.33L24.33 12.33L24.33 12.33Q24.11 12.14 23.74 12.14L23.74 12.14L20.92 12.14L20.92 12.14Q20.57 12.14 20.35 12.35L20.35 12.35L20.35 12.35Q20.13 12.56 20.13 12.88L20.13 12.88L20.13 12.88Q20.13 13.22 20.35 13.42L20.35 13.42L20.35 13.42Q20.57 13.62 20.92 13.62L20.92 13.62ZM29.74 12.46L29.74 12.46Q27.36 12.46 27.36 9.90L27.36 9.90L27.36 4.93L29.04 4.93L29.04 9.60L29.04 9.60Q29.04 10.36 29.38 10.68L29.38 10.68L29.38 10.68Q29.72 11.00 30.39 11.00L30.39 11.00L30.39 11.00Q31.09 11.00 31.57 10.50L31.57 10.50L31.57 10.50Q32.05 10.00 32.05 9.21L32.05 9.21L32.05 4.93L33.73 4.93L33.73 12.29L32.34 12.29L32.20 11.31L32.10 11.31L32.10 11.31Q31.70 11.86 31.10 12.16L31.10 12.16L31.10 12.16Q30.51 12.46 29.74 12.46L29.74 12.46ZM35.69 12.29L35.69 2.17L37.37 2.17L37.37 12.29L35.69 12.29ZM41.10 12.46L41.10 12.46Q40.21 12.46 39.49 12.02L39.49 12.02L39.49 12.02Q38.77 11.58 38.77 10.39L38.77 10.39L38.77 10.39Q38.77 8.97 39.97 8.40L39.97 8.40L39.97 8.40Q41.17 7.83 43.39 7.83L43.39 7.83L43.39 7.21L43.39 7.21Q43.39 6.68 43.11 6.38L43.11 6.38L43.11 6.38Q42.84 6.09 42.13 6.09L42.13 6.09L42.13 6.09Q41.38 6.09 41.08 6.33L41.08 6.33L41.08 6.33Q40.77 6.57 40.77 6.92L40.77 6.92L40.77 7.11L39.14 7.11L39.14 7.11Q39.13 7.03 39.13 6.80L39.13 6.80L39.13 6.80Q39.13 5.85 39.95 5.31L39.95 5.31L39.95 5.31Q40.77 4.76 42.13 4.76L42.13 4.76L42.13 4.76Q43.60 4.76 44.33 5.36L44.33 5.36L44.33 5.36Q45.07 5.96 45.07 7.08L45.07 7.08L45.07 10.60L45.07 10.60Q45.07 10.85 45.21 10.97L45.21 10.97L45.21 10.97Q45.35 11.09 45.56 11.09L45.56 11.09L46.00 11.09L46.00 12.24L46.00 12.24Q45.56 12.45 44.95 12.45L44.95 12.45L44.95 12.45Q44.41 12.45 44.04 12.18L44.04 12.18L44.04 12.18Q43.68 11.91 43.55 11.45L43.55 11.45L43.46 11.45L43.46 11.45Q42.63 12.46 41.10 12.46L41.10 12.46ZM41.61 11.12L41.61 11.12Q42.43 11.12 42.91 10.64L42.91 10.64L42.91 10.64Q43.39 10.16 43.39 9.35L43.39 9.35L43.39 9.02L43.39 9.02Q42.03 9.02 41.26 9.28L41.26 9.28L41.26 9.28Q40.49 9.53 40.49 10.22L40.49 10.22L40.49 10.22Q40.49 11.12 41.61 11.12L41.61 11.12ZM47.10 12.29L47.10 4.93L48.48 4.93L48.64 6.09L48.73 6.09L48.73 6.09Q49.24 4.76 50.39 4.76L50.39 4.76L50.39 4.76Q50.64 4.76 50.83 4.81L50.83 4.81L50.83 4.81Q51.03 4.86 51.09 4.89L51.09 4.89L51.09 6.47L50.55 6.47L50.55 6.47Q48.78 6.47 48.78 8.46L48.78 8.46L48.78 12.29L47.10 12.29Z"></path></g><!----><!----><g data-v-423bf9ae="" id="3cc50b47-a734-4cf0-87d8-f6b06a79427c" fill="black" transform="matrix(5.830903811703725,0,0,5.830903811703725,102.53209500062437,120.34693589955447)"><path d="M0.99 12.29L0.99 2.69L3.75 2.69L5.42 8.41L5.42 8.41Q5.53 8.79 5.68 9.46L5.68 9.46L5.68 9.46Q5.82 10.12 5.87 10.33L5.87 10.33L5.94 10.33L5.94 10.33Q5.98 10.11 6.10 9.43L6.10 9.43L6.10 9.43Q6.23 8.75 6.33 8.41L6.33 8.41L8.01 2.69L10.67 2.69L10.67 12.29L8.88 12.29L8.88 6.09L8.88 6.09Q8.88 5.68 8.90 5.17L8.90 5.17L8.90 5.17Q8.93 4.66 8.95 4.47L8.95 4.47L8.86 4.47L8.86 4.47Q8.75 4.94 8.58 5.53L8.58 5.53L6.61 12.29L4.96 12.29L3.00 5.53L3.00 5.53Q2.90 5.21 2.80 4.80L2.80 4.80L2.72 4.47L2.65 4.47L2.65 4.47Q2.66 4.66 2.68 5.17L2.68 5.17L2.68 5.17Q2.70 5.67 2.70 6.09L2.70 6.09L2.70 12.29L0.99 12.29ZM14.98 12.46L14.98 12.46Q12.60 12.46 12.60 9.90L12.60 9.90L12.60 4.93L14.28 4.93L14.28 9.60L14.28 9.60Q14.28 10.36 14.62 10.68L14.62 10.68L14.62 10.68Q14.97 11.00 15.64 11.00L15.64 11.00L15.64 11.00Q16.34 11.00 16.81 10.50L16.81 10.50L16.81 10.50Q17.29 10.00 17.29 9.21L17.29 9.21L17.29 4.93L18.97 4.93L18.97 12.29L17.58 12.29L17.44 11.31L17.35 11.31L17.35 11.31Q16.94 11.86 16.34 12.16L16.34 12.16L16.34 12.16Q15.75 12.46 14.98 12.46L14.98 12.46ZM20.93 12.29L20.93 4.93L22.32 4.93L22.46 5.91L22.55 5.91L22.55 5.91Q22.96 5.36 23.56 5.06L23.56 5.06L23.56 5.06Q24.15 4.76 24.92 4.76L24.92 4.76L24.92 4.76Q26.04 4.76 26.67 5.37L26.67 5.37L26.67 5.37Q27.30 5.98 27.30 7.32L27.30 7.32L27.30 12.29L25.62 12.29L25.62 7.62L25.62 7.62Q25.62 6.86 25.28 6.54L25.28 6.54L25.28 6.54Q24.93 6.22 24.26 6.22L24.26 6.22L24.26 6.22Q23.56 6.22 23.09 6.72L23.09 6.72L23.09 6.72Q22.61 7.22 22.61 8.01L22.61 8.01L22.61 12.29L20.93 12.29ZM29.22 3.78L29.22 2.17L30.90 2.17L30.90 3.78L29.22 3.78ZM29.22 12.29L29.22 4.93L30.90 4.93L30.90 12.29L29.22 12.29ZM35.80 12.46L35.80 12.46Q34.06 12.46 33.22 11.52L33.22 11.52L33.22 11.52Q32.38 10.58 32.38 8.61L32.38 8.61L32.38 8.61Q32.38 6.64 33.23 5.70L33.23 5.70L33.23 5.70Q34.08 4.76 35.80 4.76L35.80 4.76L35.80 4.76Q37.30 4.76 38.11 5.50L38.11 5.50L38.11 5.50Q38.92 6.24 38.92 7.69L38.92 7.69L37.21 7.69L37.21 7.69Q37.21 6.90 36.86 6.51L36.86 6.51L36.86 6.51Q36.51 6.12 35.77 6.12L35.77 6.12L35.77 6.12Q34.90 6.12 34.50 6.71L34.50 6.71L34.50 6.71Q34.09 7.31 34.09 8.54L34.09 8.54L34.09 8.71L34.09 8.71Q34.09 9.94 34.50 10.52L34.50 10.52L34.50 10.52Q34.92 11.10 35.84 11.10L35.84 11.10L35.84 11.10Q36.55 11.10 36.93 10.70L36.93 10.70L36.93 10.70Q37.30 10.29 37.30 9.53L37.30 9.53L38.92 9.53L38.92 9.53Q38.92 10.92 38.10 11.69L38.10 11.69L38.10 11.69Q37.28 12.46 35.80 12.46L35.80 12.46ZM40.36 12.29L40.36 2.17L42.04 2.17L42.04 5.77L42.14 5.77L42.14 5.77Q42.50 5.31 43.06 5.03L43.06 5.03L43.06 5.03Q43.62 4.76 44.35 4.76L44.35 4.76L44.35 4.76Q45.47 4.76 46.10 5.37L46.10 5.37L46.10 5.37Q46.73 5.98 46.73 7.32L46.73 7.32L46.73 12.29L45.05 12.29L45.05 7.62L45.05 7.62Q45.05 6.86 44.71 6.54L44.71 6.54L44.71 6.54Q44.37 6.22 43.69 6.22L43.69 6.22L43.69 6.22Q42.99 6.22 42.52 6.72L42.52 6.72L42.52 6.72Q42.04 7.22 42.04 8.01L42.04 8.01L42.04 12.29L40.36 12.29Z"></path></g></svg>